<svg width="22" height="21" viewBox="0 0 22 21" fill="none" xmlns="http://www.w3.org/2000/svg">
<path d="M11.0004 19.1097L2.47805 10.2211C1.72905 9.47269 1.23469 8.50745 1.0651 7.46228C0.8955 6.41711 1.05928 5.34508 1.5332 4.39822V4.39822C1.89057 3.68369 2.41261 3.06429 3.05629 2.59108C3.69998 2.11786 4.4469 1.80436 5.23551 1.67641C6.02411 1.54847 6.83184 1.60973 7.59212 1.85516C8.35241 2.10059 9.0435 2.52316 9.60845 3.08805L11.0004 4.47911L12.3923 3.08805C12.9573 2.52316 13.6484 2.10059 14.4087 1.85516C15.1689 1.60973 15.9767 1.54847 16.7653 1.67641C17.5539 1.80436 18.3008 2.11786 18.9445 2.59108C19.5882 3.06429 20.1102 3.68369 20.4676 4.39822C20.9409 5.34471 21.1044 6.41611 20.935 7.46068C20.7655 8.50525 20.2718 9.47005 19.5236 10.2184L11.0004 19.1097Z" stroke="#0057ffb3" stroke-width="2" stroke-linecap="round" stroke-linejoin="round"/>
</svg>
