<svg width="20" height="23" viewBox="0 0 20 23" fill="none" xmlns="http://www.w3.org/2000/svg">
<path d="M18.2334 10.1079C18.2334 16.5625 11.6224 20.539 10.2485 21.2965C10.1724 21.3385 10.0869 21.3605 9.99998 21.3605C9.91306 21.3605 9.82755 21.3385 9.75145 21.2965C8.37655 20.539 1.76758 16.5625 1.76758 10.1079C1.76758 4.96237 4.85492 1.36047 10.0005 1.36047C15.1461 1.36047 18.2334 4.96237 18.2334 10.1079Z" stroke="#9795B5" stroke-width="1.8" stroke-linecap="round" stroke-linejoin="round"/>
<path d="M5.88379 9.59339C5.88379 10.6851 6.31749 11.7322 7.08947 12.5042C7.86146 13.2761 8.90849 13.7098 10.0002 13.7098C11.092 13.7098 12.139 13.2761 12.911 12.5042C13.683 11.7322 14.1167 10.6851 14.1167 9.59339C14.1167 8.50163 13.683 7.4546 12.911 6.68261C12.139 5.91063 11.092 5.47693 10.0002 5.47693C8.90849 5.47693 7.86146 5.91063 7.08947 6.68261C6.31749 7.4546 5.88379 8.50163 5.88379 9.59339V9.59339Z" stroke="#9795B5" stroke-width="1.8" stroke-linecap="round" stroke-linejoin="round"/>
</svg>
