<?xml version="1.0" encoding="utf-8"?>
<!-- Svg Vector Icons : http://www.onlinewebfonts.com/icon -->
<!DOCTYPE svg PUBLIC "-//W3C//DTD SVG 1.1//EN" "http://www.w3.org/Graphics/SVG/1.1/DTD/svg11.dtd">
<svg version="1.1" xmlns="http://www.w3.org/2000/svg" xmlns:xlink="http://www.w3.org/1999/xlink" x="0px" y="0px" viewBox="0 0 1000 1000" enable-background="new 0 0 1000 1000" xml:space="preserve">
<metadata> Svg Vector Icons : http://www.onlinewebfonts.com/icon </metadata>
<g><path d="M500,990l-14.3-18.2c-13.6-17.4-333-428.5-333-614.4C152.7,165.8,308.5,10,500,10c191.5,0,347.3,155.8,347.3,347.3c0,185.9-319.4,597-333,614.4L500,990z M500,46.3c-171.5,0-311.1,139.6-311.1,311c0,152.4,248.3,490.3,311.1,573.5c62.8-83.1,311.1-421.1,311.1-573.5C811.1,185.8,671.6,46.3,500,46.3z"/><path d="M496,521.1c-103.5,0-187.7-84.2-187.7-187.7c0-103.5,84.2-187.7,187.7-187.7c103.5,0,187.7,84.2,187.7,187.7C683.7,436.8,599.5,521.1,496,521.1z M496,181.8c-83.6,0-151.6,68-151.6,151.5c0,83.5,68,151.5,151.6,151.5c83.6,0,151.5-68,151.5-151.5C647.4,249.8,579.5,181.8,496,181.8z"/></g>
</svg>